<?xml version="1.0" encoding="UTF-8" standalone="no"?>
<!-- Created with Inkscape (http://www.inkscape.org/) -->

<svg
   xmlns:dc="http://purl.org/dc/elements/1.1/"
   xmlns:cc="http://creativecommons.org/ns#"
   xmlns:rdf="http://www.w3.org/1999/02/22-rdf-syntax-ns#"
   xmlns:svg="http://www.w3.org/2000/svg"
   xmlns="http://www.w3.org/2000/svg"
   xmlns:sodipodi="http://sodipodi.sourceforge.net/DTD/sodipodi-0.dtd"
   xmlns:inkscape="http://www.inkscape.org/namespaces/inkscape"
   width="199.73572mm"
   height="116.40994mm"
   viewBox="0 0 199.73572 116.40994"
   version="1.1"
   id="svg8"
   inkscape:export-filename="D:\Users\Jon\Documents\GitHub\dotnetfoundation-website\src\wwwroot\theme\img\carousel\foundation-diagram-content.png"
   inkscape:export-xdpi="99.190002"
   inkscape:export-ydpi="99.190002"
   inkscape:version="0.92.1 r15371"
   sodipodi:docname="dnf-website-carousel-foundation.svg">
  <defs
     id="defs2" />
  <sodipodi:namedview
     id="base"
     pagecolor="#ffffff"
     bordercolor="#666666"
     borderopacity="1.0"
     inkscape:pageopacity="0.0"
     inkscape:pageshadow="2"
     inkscape:zoom="1.4"
     inkscape:cx="322.95871"
     inkscape:cy="272.80632"
     inkscape:document-units="mm"
     inkscape:current-layer="layer1"
     showgrid="false"
     fit-margin-top="0"
     fit-margin-left="0"
     fit-margin-right="0"
     fit-margin-bottom="0"
     inkscape:pagecheckerboard="true"
     inkscape:window-width="1920"
     inkscape:window-height="1017"
     inkscape:window-x="1912"
     inkscape:window-y="-8"
     inkscape:window-maximized="1" />
  <metadata
     id="metadata5">
    <rdf:RDF>
      <cc:Work
         rdf:about="">
        <dc:format>image/svg+xml</dc:format>
        <dc:type
           rdf:resource="http://purl.org/dc/dcmitype/StillImage" />
        <dc:title></dc:title>
      </cc:Work>
    </rdf:RDF>
  </metadata>
  <g
     inkscape:label="Layer 1"
     inkscape:groupmode="layer"
     id="layer1"
     transform="translate(-12.564859,-54.4043)">
    <g
       id="g4747"
       style="opacity:1">
      <line
         style="fill:none;stroke:#e5e5e5;stroke-width:3.93671346;stroke-linecap:round;stroke-miterlimit:10;stroke-dasharray:none;stroke-opacity:1"
         x1="53.331486"
         y1="112.75479"
         x2="110.70449"
         y2="112.75479"
         id="line3709" />
      <path
         sodipodi:nodetypes="csssccsssccsccc"
         inkscape:connector-curvature="0"
         style="fill:none;stroke:#e5e5e5;stroke-width:3.9690001;stroke-linecap:round;stroke-miterlimit:10;stroke-dasharray:none;stroke-opacity:1"
         d="m 67.089817,112.75479 c 3.942292,0 5.926667,-2.14312 5.926667,-5.92666 V 79.920001 c 0,-3.783542 2.645833,-5.926667 5.926666,-5.926667 h 2.090209 M 67.089817,112.75479 c 3.942292,0 5.926667,2.14313 5.926667,5.92667 v 26.61708 c 0,3.78354 5.926666,5.92667 5.926666,5.92667 H 142.2655 M 67.089817,112.75479 c 3.942292,0 5.926667,2.14313 5.926667,5.92667 v 0.74083 m -19.685,-6.6675 h 14.313958"
         id="path3713" />
      <g
         transform="matrix(0.09658025,0,0,0.09658025,14.840993,93.389802)"
         id="g32">
        <path
           style="fill:#68217a"
           inkscape:connector-curvature="0"
           d="M 212,13 C 120.304,13 44.112,79.356 28.807,166.667 c 17.626,0.014 31.91,14.306 31.91,31.935 0,17.637 -14.297,31.935 -31.935,31.935 -0.036,0 -0.07,-0.003 -0.107,-0.003 C 43.655,318.238 120.025,385 212,385 314.725,385 398,301.725 398,199 398,96.275 314.725,13 212,13"
           id="path12" />
        <path
           style="fill:#ffffff"
           inkscape:connector-curvature="0"
           d="M 152.052,220.588 H 132.914 L 98.218,167.693 c -2.035,-3.092 -3.444,-5.42 -4.227,-6.986 h -0.233 c 0.313,3.13 0.47,7.67 0.47,13.62 v 46.26 H 76.32 v -84.184 h 20.43 l 33.405,51.25 4.226,6.87 h 0.236 c -0.313,-2.036 -0.47,-5.89 -0.47,-11.566 v -46.554 h 17.906 z m 69.743,0 h -50.487 v -84.185 h 48.55 v 15.44 H 190.27 v 18.727 h 27.533 v 15.38 H 190.27 v 19.257 h 31.525 z m 72.62,-68.745 h -24.01 v 68.745 H 251.383 V 151.843 H 227.49 v -15.44 h 66.925 z"
           id="path14" />
        <path
           style="font-size:58.66699982px;letter-spacing:-2.8499999;fill:#ffffff"
           inkscape:connector-curvature="0"
           d="m 90.34,245.895 c -4.64,-0.23 -9.207,3.485 -9.563,8.27 -0.245,1.52 -0.225,3.003 -0.216,4.54 -1.192,0.427 -2.866,-0.602 -3.748,0.4 0.27,1.058 -0.71,2.966 1.075,3.05 0.926,0.088 2.63,-0.566 2.76,0.976 -0.234,7.514 -0.008,15.094 -0.086,22.638 0.392,1.07 -0.83,3.777 0.69,3.683 1.107,-0.125 3.035,0.862 3.492,-0.512 v -26.872 h 9.492 c -0.235,-1.084 0.725,-2.794 -0.39,-3.43 -3.064,0.256 -6.183,0.034 -9.268,0.108 -0.143,-3.1 -0.034,-7.39 3.38,-8.724 2.644,-1.046 5.58,-0.64 8.26,0.044 -0.252,-1.217 0.88,-3.144 -0.49,-3.816 -1.797,-0.253 -3.578,-0.424 -5.386,-0.353 z m 20.002,11.959 c -6.417,-0.562 -12.82,4.324 -13.883,10.7 -1.487,6.186 -0.787,13.58 3.853,18.315 5.757,5.275 16.076,4.848 20.705,-1.755 3.528,-4.878 3.708,-11.324 2.354,-16.957 -1.312,-5.695 -6.517,-10.24 -12.444,-10.283 0.18,0.03 -0.81,-0.057 -0.586,-0.02 z m 0.015,3.425 c 4.78,-0.09 8.782,4.18 9.057,8.833 0.806,5.09 0.543,11.255 -3.553,14.932 -4.65,3.81 -13.005,1.884 -14.644,-4.186 -1.638,-4.83 -1.523,-10.405 0.617,-15.056 1.645,-3.04 5.12,-4.737 8.524,-4.525 z m 21.44,-2.639 c -1.973,-0.233 -0.955,2.288 -1.192,3.404 0.11,6.532 -0.215,13.154 0.152,19.622 0.423,4.033 3.173,7.972 7.41,8.55 4.67,0.96 9.552,-1.15 12.995,-4.296 1.35,-0.065 0.697,1.994 0.814,2.775 -0.037,1.6 2.158,0.72 3.118,0.782 1.798,0.386 0.824,-1.85 1.064,-3.002 v -27.668 c -1.378,0.277 -3.127,-0.778 -4.152,0.304 -0.073,7.736 -0.01,15.48 -0.03,23.22 -3.808,3.044 -9.195,5.526 -14,3.352 -3.532,-2.182 -3.146,-6.933 -3.19,-10.52 v -16.355 c -0.99,0.103 -2.064,-0.157 -2.99,-0.166 z m 48.146,-0.767 c -4.03,0.198 -7.6,2.458 -10.578,5.022 -0.517,-1.372 0.58,-3.156 -0.43,-4.227 -1.3,0.315 -3.262,-0.672 -3.98,0.842 0.36,8.206 0.052,16.496 0.154,24.734 0.21,1.614 -0.417,4.137 0.298,5.207 1.268,-0.195 3.107,0.854 3.875,-0.395 0.018,-7.702 0.003,-15.405 0.008,-23.108 3.864,-3.08 9.463,-5.678 14.255,-3.152 3.252,2.157 2.802,6.63 2.934,10.025 v 16.655 c 1.377,-0.278 3.126,0.777 4.15,-0.305 -0.106,-7.883 0.39,-15.82 -0.288,-23.668 -0.695,-4.18 -4.432,-7.774 -8.87,-7.625 -0.51,-0.023 -1.018,-0.023 -1.528,-0.004 z m 41.202,-11.809 c -1.973,-0.233 -0.955,2.288 -1.192,3.404 -0.114,3.408 0.218,6.946 -0.148,10.282 -1.37,0.706 -2.626,-1.148 -4.034,-1.182 -5.99,-2.145 -13.542,0.38 -16.348,6.295 -3.19,6.073 -2.884,13.548 -0.135,19.713 2.193,4.248 7.175,6.67 11.78,5.71 3.38,-0.504 6.326,-2.476 8.808,-4.73 0.53,1.29 -0.59,3.095 0.436,4.085 1.32,-0.34 3.247,0.638 3.98,-0.87 -0.36,-8.205 -0.053,-16.494 -0.155,-24.732 V 246.23 c -0.993,0.104 -2.066,-0.156 -2.99,-0.166 z m -9.442,15.516 c 2.815,0.09 6.143,0.436 8.25,2.32 -0.08,6.23 0.158,12.614 -0.117,18.746 -3.838,3.178 -9.672,5.355 -14.316,2.586 -4.12,-3.058 -4.126,-8.833 -3.88,-13.468 0.296,-4.643 3.424,-9.64 8.417,-10.07 0.544,-0.084 1.097,-0.104 1.646,-0.114 z m 29.847,-3.557 c -2.658,0.18 -5.368,0.633 -7.9,1.29 0.227,1.38 -0.58,3.016 0.18,4.158 5.17,-1.753 11.272,-3.16 16.375,-0.51 2.09,1.436 2.643,4.222 2.37,6.6 -6.512,0.657 -13.907,-0.042 -19.247,4.454 -4.76,4.648 -2.736,14.017 3.843,15.85 5.128,1.71 10.668,-0.467 14.68,-3.772 1.356,-0.015 0.533,2.023 0.7,2.797 -0.103,1.166 1.538,0.247 2.223,0.678 0.95,0.263 2.443,0.1 1.973,-1.227 -0.167,-7.74 0.367,-15.52 -0.307,-23.235 -0.965,-4.332 -5.394,-6.81 -9.567,-6.96 -1.784,-0.195 -3.55,-0.207 -5.322,-0.122 z m 11.044,15.01 c -0.144,3.22 0.298,6.58 -0.24,9.705 -3.98,3.288 -9.933,5.285 -14.792,2.77 -3.942,-2.557 -2.952,-9.516 1.588,-10.852 4.24,-1.825 8.958,-1.427 13.444,-1.955 v 0.3 z m 14.24,-23.588 c -1.973,-0.233 -0.955,2.288 -1.19,3.403 -0.19,1.86 0.347,3.953 -0.218,5.695 -0.97,0.865 -2.753,-0.534 -3.46,0.475 -0.057,1.188 -0.465,3.68 1.56,3.178 0.992,-0.57 2.494,-0.063 2.197,1.283 -0.18,4.42 0.01,8.88 -0.123,13.323 0.172,3.908 -0.4,8.706 3.06,11.46 3.457,2.792 8.244,1.95 12.227,1.128 -0.213,-1.163 0.522,-2.586 -0.09,-3.568 -3.08,0.97 -7.35,1.697 -9.635,-1.187 -2.213,-3.337 -0.99,-7.582 -1.338,-11.287 v -11.282 h 11.07 c -0.237,-1.084 0.724,-2.794 -0.392,-3.43 -3.533,0.258 -7.123,0.033 -10.678,0.108 v -9.133 c -0.992,0.104 -2.065,-0.155 -2.99,-0.165 z m 19.471,-1.72 c -1.63,0.272 -0.377,2.63 -0.768,3.73 0.233,1.61 3.378,0.308 4.8,0.73 -0.198,-1.418 0.69,-3.173 -0.267,-4.372 -1.263,0.232 -2.524,-0.21 -3.765,-0.088 z m 0.767,10.916 c -1.973,-0.233 -0.955,2.288 -1.19,3.404 v 27.43 c 1.377,-0.277 3.126,0.778 4.15,-0.304 0.074,-10.116 0.012,-20.243 0.032,-30.363 -0.993,0.103 -2.066,-0.157 -2.992,-0.166 z m 22.92,-0.768 c -6.545,-0.064 -12.283,5.48 -12.927,11.83 -1.157,6.052 -0.245,13.218 4.59,17.59 6.127,5.13 16.8,4.04 20.88,-3.156 2.954,-5.183 3.126,-11.584 1.33,-17.13 -1.648,-5.285 -6.767,-9.2 -12.366,-9.133 -0.503,-0.028 -1.005,-0.01 -1.508,0 z m 1.22,3.406 c 4.778,-0.09 8.78,4.18 9.054,8.833 0.806,5.09 0.544,11.255 -3.553,14.932 -4.65,3.81 -13.007,1.883 -14.646,-4.186 -1.635,-4.832 -1.524,-10.405 0.617,-15.056 1.647,-3.04 5.12,-4.736 8.527,-4.525 z m 35.308,-3.406 c -4.032,0.197 -7.6,2.46 -10.577,5.022 -0.517,-1.372 0.582,-3.156 -0.43,-4.227 -1.3,0.315 -3.262,-0.672 -3.98,0.842 0.36,8.206 0.052,16.496 0.154,24.734 0.212,1.614 -0.416,4.137 0.3,5.207 1.267,-0.195 3.106,0.854 3.874,-0.395 0.02,-7.702 0.004,-15.405 0.01,-23.108 3.86,-3.08 9.46,-5.678 14.25,-3.152 3.253,2.156 2.806,6.63 2.937,10.025 v 16.655 c 1.377,-0.278 3.126,0.777 4.15,-0.305 -0.108,-7.883 0.393,-15.82 -0.29,-23.668 -0.688,-4.195 -4.467,-7.79 -8.868,-7.625 -0.51,-0.023 -1.02,-0.023 -1.53,-0.004 z"
           font-size="58.667"
           letter-spacing="-2.85"
           id="path16" />
        <path
           style="fill:#cf18fd"
           inkscape:connector-curvature="0"
           d="m 51.282,199.167 c 0,12.98 -10.52,23.5 -23.5,23.5 -12.98,0 -23.5,-10.52 -23.5,-23.5 0,-12.98 10.52,-23.5 23.5,-23.5 12.98,0 23.5,10.52 23.5,23.5"
           id="path18" />
      </g>
    </g>
    <g
       id="g4729"
       style="opacity:1">
      <g
         id="g4690">
        <rect
           y="60.347832"
           x="82.355309"
           height="26.464016"
           width="75.955444"
           id="rect4567"
           style="opacity:1;fill:#1f1f1f;fill-opacity:0.56060606;stroke:#e5e5e5;stroke-width:2.1622293;stroke-miterlimit:10;stroke-dasharray:none;stroke-dashoffset:0;stroke-opacity:1"
           ry="4.7142963"
           rx="3.7174132" />
        <text
           xml:space="preserve"
           style="font-style:normal;font-variant:normal;font-weight:normal;font-stretch:normal;font-size:8.96764278px;line-height:1.25;font-family:'Comic Sans MS';-inkscape-font-specification:'Comic Sans MS';letter-spacing:0px;word-spacing:0px;fill:#000000;fill-opacity:1;stroke:none;stroke-width:0.22419105"
           x="94.654907"
           y="69.420898"
           id="text4575"><tspan
             sodipodi:role="line"
             id="tspan4573"
             x="94.654907"
             y="69.420898"
             style="font-style:normal;font-variant:normal;font-weight:normal;font-stretch:normal;font-size:8.36980057px;font-family:'Segoe UI';-inkscape-font-specification:'Segoe UI';fill:#ffffff;stroke-width:0.22419105">Collaboration</tspan></text>
        <text
           id="text4587"
           y="75.95578"
           x="87.453621"
           style="font-style:normal;font-variant:normal;font-weight:normal;font-stretch:normal;font-size:4.74035501px;line-height:1.03258395;font-family:'Comic Sans MS';-inkscape-font-specification:'Comic Sans MS';letter-spacing:0px;word-spacing:0px;fill:#000000;fill-opacity:1;stroke:none;stroke-width:0.11850886"
           xml:space="preserve"><tspan
             style="font-style:normal;font-variant:normal;font-weight:normal;font-stretch:normal;font-size:4.93888903px;line-height:89.99999762%;font-family:'Segoe UI';-inkscape-font-specification:'Segoe UI';fill:#ffffff;stroke-width:0.11850886"
             y="75.95578"
             x="87.453621"
             sodipodi:role="line"
             id="tspan4593">Industry and OSS developers, </tspan><tspan
             style="font-style:normal;font-variant:normal;font-weight:normal;font-stretch:normal;font-size:4.93888903px;line-height:89.99999762%;font-family:'Segoe UI';-inkscape-font-specification:'Segoe UI';fill:#ffffff;stroke-width:0.11850886"
             y="80.850594"
             x="87.453621"
             sodipodi:role="line"
             id="tspan4677">building .NET together</tspan></text>
      </g>
      <g
         id="g4706">
        <rect
           rx="3.4523025"
           ry="4.1616311"
           style="opacity:1;fill:#1f1f1f;fill-opacity:0.56060606;stroke:#e5e5e5;stroke-width:2;stroke-miterlimit:10;stroke-dasharray:none;stroke-dashoffset:0;stroke-opacity:1"
           id="rect4607"
           width="64.589401"
           height="26.626244"
           x="143.12839"
           y="137.5251" />
        <text
           id="text4611"
           y="146.1501"
           x="153.3924"
           style="font-style:normal;font-variant:normal;font-weight:normal;font-stretch:normal;font-size:8.96764278px;line-height:1.25;font-family:'Comic Sans MS';-inkscape-font-specification:'Comic Sans MS';letter-spacing:0px;word-spacing:0px;fill:#000000;fill-opacity:1;stroke:none;stroke-width:0.22419105"
           xml:space="preserve"><tspan
             style="font-style:normal;font-variant:normal;font-weight:normal;font-stretch:normal;font-size:8.36980057px;font-family:'Segoe UI';-inkscape-font-specification:'Segoe UI';fill:#ffffff;stroke-width:0.22419105"
             y="146.1501"
             x="153.3924"
             id="tspan4609"
             sodipodi:role="line">Community</tspan></text>
        <text
           xml:space="preserve"
           style="font-style:normal;font-variant:normal;font-weight:normal;font-stretch:normal;font-size:4.74035501px;line-height:1.03258395;font-family:'Comic Sans MS';-inkscape-font-specification:'Comic Sans MS';letter-spacing:0px;word-spacing:0px;fill:#000000;fill-opacity:1;stroke:none;stroke-width:0.11850886"
           x="148.30782"
           y="153.21416"
           id="text4617"><tspan
             id="tspan4615"
             sodipodi:role="line"
             x="148.30782"
             y="153.21416"
             style="font-style:normal;font-variant:normal;font-weight:normal;font-stretch:normal;font-size:4.93888903px;line-height:89.99999762%;font-family:'Segoe UI';-inkscape-font-specification:'Segoe UI';fill:#ffffff;stroke-width:0.11850886">Supporting the growing</tspan><tspan
             id="tspan4643"
             sodipodi:role="line"
             x="148.30782"
             y="158.10898"
             style="font-style:normal;font-variant:normal;font-weight:normal;font-stretch:normal;font-size:4.93888903px;line-height:89.99999762%;font-family:'Segoe UI';-inkscape-font-specification:'Segoe UI';fill:#ffffff;stroke-width:0.11850886">.NET dev community</tspan></text>
      </g>
      <g
         id="g4698">
        <rect
           y="99.485573"
           x="112.49721"
           height="26.505241"
           width="72.972862"
           id="rect4621"
           style="opacity:1;fill:#1f1f1f;fill-opacity:0.56060606;stroke:#e5e5e5;stroke-width:2.12100172;stroke-miterlimit:10;stroke-dasharray:none;stroke-dashoffset:0;stroke-opacity:1"
           ry="4.1461577"
           rx="3.6695986" />
        <text
           xml:space="preserve"
           style="font-style:normal;font-variant:normal;font-weight:normal;font-stretch:normal;font-size:8.96764278px;line-height:1.25;font-family:'Comic Sans MS';-inkscape-font-specification:'Comic Sans MS';letter-spacing:0px;word-spacing:0px;fill:#000000;fill-opacity:1;stroke:none;stroke-width:0.22419105"
           x="134.87149"
           y="108.05009"
           id="text4625"><tspan
             sodipodi:role="line"
             id="tspan4623"
             x="134.87149"
             y="108.05009"
             style="font-style:normal;font-variant:normal;font-weight:normal;font-stretch:normal;font-size:8.36980057px;font-family:'Segoe UI';-inkscape-font-specification:'Segoe UI';fill:#ffffff;stroke-width:0.22419105">Support</tspan></text>
        <text
           id="text4631"
           y="115.11414"
           x="116.02863"
           style="font-style:normal;font-variant:normal;font-weight:normal;font-stretch:normal;font-size:4.74035501px;line-height:1.03258395;font-family:'Comic Sans MS';-inkscape-font-specification:'Comic Sans MS';letter-spacing:0px;word-spacing:0px;fill:#000000;fill-opacity:1;stroke:none;stroke-width:0.11850886"
           xml:space="preserve"><tspan
             style="font-style:normal;font-variant:normal;font-weight:normal;font-stretch:normal;font-size:4.93888903px;line-height:89.99999762%;font-family:'Segoe UI';-inkscape-font-specification:'Segoe UI';fill:#ffffff;stroke-width:0.11850886"
             y="115.11414"
             x="116.02863"
             sodipodi:role="line"
             id="tspan4629">Helping the .NET community</tspan><tspan
             style="font-style:normal;font-variant:normal;font-weight:normal;font-stretch:normal;font-size:4.93888903px;line-height:89.99999762%;font-family:'Segoe UI';-inkscape-font-specification:'Segoe UI';fill:#ffffff;stroke-width:0.11850886"
             y="120.00896"
             x="116.02863"
             sodipodi:role="line"
             id="tspan4657">build sustainable OSS projects</tspan></text>
      </g>
    </g>
  </g>
</svg>
